<svg xmlns="http://www.w3.org/2000/svg" viewBox="0 0 34.36 28"><defs><style>.acaa804f-ec8f-443d-aaa0-e2f1d62750c2{fill:#fff;}</style></defs><title>ac-logo_0blackRecurso 41</title><g id="f8eec947-8dea-453f-aa1e-d5d21fdeeb7d" data-name="Capa 2"><g id="ab241ffd-dfad-4442-9434-2eb074449ca9" data-name="Capa 1"><rect width="34.36" height="28"/><path class="acaa804f-ec8f-443d-aaa0-e2f1d62750c2" d="M7.35,25.53a8.29,8.29,0,0,1-1.87-.16,1.58,1.58,0,0,1-1-.65,2.93,2.93,0,0,1-.4-1.42C4,22.68,4,21.84,4,20.79v-3a13.72,13.72,0,0,0-.1-2,1.55,1.55,0,0,0-.39-.93,1.27,1.27,0,0,0-.87-.26V13.3A1.18,1.18,0,0,0,3.52,13a1.59,1.59,0,0,0,.39-.95,13.75,13.75,0,0,0,.1-2V7.19q0-1.58.09-2.52a3,3,0,0,1,.4-1.42,1.52,1.52,0,0,1,1-.63,9,9,0,0,1,1.87-.15V3.76a3.68,3.68,0,0,0-.92.09A.73.73,0,0,0,6,4.27a3,3,0,0,0-.16,1c0,.46,0,1.09,0,1.89V10.5A6.71,6.71,0,0,1,5.45,13,1.61,1.61,0,0,1,4.39,14a1.56,1.56,0,0,1,1.06.93,6.82,6.82,0,0,1,.33,2.53v3.38c0,.8,0,1.43,0,1.9a3.09,3.09,0,0,0,.16,1,.71.71,0,0,0,.47.41,4.34,4.34,0,0,0,.92.08Z"/><path class="acaa804f-ec8f-443d-aaa0-e2f1d62750c2" d="M11.48,21.87a2.55,2.55,0,0,1-1.43-.41,2.78,2.78,0,0,1-1-1.11,3.32,3.32,0,0,1-.34-1.51,4.8,4.8,0,0,1,.29-1.76A3.58,3.58,0,0,1,10,15.77a8.53,8.53,0,0,1,1.69-1.12c.7-.37,1.55-.78,2.55-1.24v-1a10,10,0,0,0-.15-2,1.7,1.7,0,0,0-.52-1,1.5,1.5,0,0,0-1-.31,2.12,2.12,0,0,0-1,.21,1.54,1.54,0,0,0-.68.72,3,3,0,0,0-.26,1.4V12L9,11.93a4.67,4.67,0,0,1,.88-3.06,3.51,3.51,0,0,1,2.81-1A2.88,2.88,0,0,1,15.21,9a6.19,6.19,0,0,1,.74,3.4V19c0,.23,0,.53,0,.9s0,.72,0,1.05,0,.58,0,.75H14.54c0-.3-.08-.63-.14-1a6.6,6.6,0,0,1-.12-.88,3.37,3.37,0,0,1-1,1.45A2.59,2.59,0,0,1,11.48,21.87ZM12,20.41a1.69,1.69,0,0,0,.94-.26,3.27,3.27,0,0,0,.76-.62,3.39,3.39,0,0,0,.51-.74V14.56c-.67.35-1.25.66-1.72.94a7.12,7.12,0,0,0-1.17.83,2.62,2.62,0,0,0-.66.9,3.09,3.09,0,0,0-.21,1.19A2.07,2.07,0,0,0,10.94,20,1.51,1.51,0,0,0,12,20.41Z"/><path class="acaa804f-ec8f-443d-aaa0-e2f1d62750c2" d="M21.84,21.87a3.44,3.44,0,0,1-2.37-.71,3.35,3.35,0,0,1-1-1.91,13.39,13.39,0,0,1-.25-2.74V13.34a12.63,12.63,0,0,1,.31-3.09A3,3,0,0,1,19.6,8.46a3.62,3.62,0,0,1,2.24-.59A3.73,3.73,0,0,1,24,8.41a2.62,2.62,0,0,1,1,1.53,9,9,0,0,1,.26,2.27v.66H23.7v-.66a7.4,7.4,0,0,0-.18-1.85,1.51,1.51,0,0,0-.59-.93,1.93,1.93,0,0,0-1.09-.27,1.78,1.78,0,0,0-1.22.38,2,2,0,0,0-.56,1.23,14,14,0,0,0-.14,2.29v3.81a7.17,7.17,0,0,0,.4,2.87,1.54,1.54,0,0,0,1.55.84,1.66,1.66,0,0,0,1.19-.37,1.78,1.78,0,0,0,.52-1.09,11.37,11.37,0,0,0,.12-1.81v-.75h1.6v.66a10.82,10.82,0,0,1-.25,2.41,2.87,2.87,0,0,1-1,1.64A3.49,3.49,0,0,1,21.84,21.87Z"/><path class="acaa804f-ec8f-443d-aaa0-e2f1d62750c2" d="M27,25.53V24.22a4.34,4.34,0,0,0,.92-.08.73.73,0,0,0,.47-.41,3.37,3.37,0,0,0,.16-1c0-.47,0-1.1,0-1.9V17.41a6.82,6.82,0,0,1,.33-2.53A1.56,1.56,0,0,1,30,14,1.61,1.61,0,0,1,28.91,13a6.71,6.71,0,0,1-.33-2.5V7.19c0-.8,0-1.43,0-1.89a3.29,3.29,0,0,0-.16-1,.75.75,0,0,0-.47-.42A3.68,3.68,0,0,0,27,3.76V2.47a9,9,0,0,1,1.87.15,1.59,1.59,0,0,1,1,.63,2.86,2.86,0,0,1,.39,1.42c.05.63.08,1.47.08,2.52v2.93a13.75,13.75,0,0,0,.1,2,1.53,1.53,0,0,0,.4.95,1.19,1.19,0,0,0,.86.28v1.31a1.28,1.28,0,0,0-.86.26,1.5,1.5,0,0,0-.4.93,13.72,13.72,0,0,0-.1,2v3c0,1.05,0,1.89-.08,2.51a2.83,2.83,0,0,1-.39,1.42,1.65,1.65,0,0,1-1,.65A8.29,8.29,0,0,1,27,25.53Z"/></g></g></svg>