<svg xmlns="http://www.w3.org/2000/svg" viewBox="0 0 34.36 28"><defs><style>.b1210434-eecb-452b-a696-edcbfc61527a{fill:#fff;}</style></defs><title>ac_logo_BW_extralightRecurso 51</title><g id="a8deef16-57ee-4d48-9267-5a06958954a2" data-name="Capa 2"><g id="b1a7083c-d5a0-42e4-8be8-bf8d3954b38e" data-name="Capa 1"><rect width="34.36" height="28"/><path class="b1210434-eecb-452b-a696-edcbfc61527a" d="M7.83,25.35a5.92,5.92,0,0,1-1.58-.17,1.29,1.29,0,0,1-.84-.64,3.69,3.69,0,0,1-.32-1.43c0-.62,0-1.46,0-2.51V17.74a14.26,14.26,0,0,0-.11-2,1.76,1.76,0,0,0-.39-1,1.18,1.18,0,0,0-.87-.28V13.39a1.18,1.18,0,0,0,.87-.29,1.87,1.87,0,0,0,.39-1,14.4,14.4,0,0,0,.11-2V7.38c0-1,0-1.89,0-2.52a3.63,3.63,0,0,1,.32-1.42,1.25,1.25,0,0,1,.84-.63,6.44,6.44,0,0,1,1.58-.16v.94a3.61,3.61,0,0,0-.92.1.7.7,0,0,0-.47.46,3.88,3.88,0,0,0-.16,1.12c0,.51,0,1.21,0,2.11v3.1A8,8,0,0,1,6,13a1.54,1.54,0,0,1-1,1,1.45,1.45,0,0,1,1,.94,8,8,0,0,1,.27,2.51V20.6c0,.89,0,1.6,0,2.11a3.84,3.84,0,0,0,.16,1.13.7.7,0,0,0,.47.45,3.68,3.68,0,0,0,.92.09Z"/><path class="b1210434-eecb-452b-a696-edcbfc61527a" d="M11.87,22.06a2.68,2.68,0,0,1-1.43-.38,2.51,2.51,0,0,1-.95-1,3.32,3.32,0,0,1-.34-1.54,4.64,4.64,0,0,1,.22-1.52,3.15,3.15,0,0,1,.81-1.21,8.56,8.56,0,0,1,1.68-1.18c.73-.42,1.67-.9,2.83-1.45v-1a11.26,11.26,0,0,0-.18-2.3,1.89,1.89,0,0,0-.58-1.15A1.76,1.76,0,0,0,12.81,9a3,3,0,0,0-1,.18,1.64,1.64,0,0,0-.81.74,3.4,3.4,0,0,0-.32,1.64v.35H9.43A4.5,4.5,0,0,1,10.21,9a3.25,3.25,0,0,1,2.65-.95,2.6,2.6,0,0,1,2.39,1.08,6.73,6.73,0,0,1,.68,3.5v6.83c0,.13,0,.37,0,.72s0,.69,0,1a5.24,5.24,0,0,0,0,.64H14.92c0-.33-.07-.68-.11-1s-.08-.62-.1-.77a3.13,3.13,0,0,1-1.05,1.43A2.85,2.85,0,0,1,11.87,22.06Zm.31-1a2.05,2.05,0,0,0,1.05-.27,3.15,3.15,0,0,0,.85-.7,4.26,4.26,0,0,0,.61-.93V14.66c-.83.44-1.52.81-2.08,1.13a7.54,7.54,0,0,0-1.31.89,2.42,2.42,0,0,0-.7.95,3.47,3.47,0,0,0-.21,1.28A2.07,2.07,0,0,0,11,20.58,1.93,1.93,0,0,0,12.18,21Z"/><path class="b1210434-eecb-452b-a696-edcbfc61527a" d="M21.67,22.06a3.11,3.11,0,0,1-2.26-.72,3.57,3.57,0,0,1-.95-1.91,14.6,14.6,0,0,1-.22-2.68v-3.2a13.7,13.7,0,0,1,.3-3.2A2.92,2.92,0,0,1,19.6,8.6a3.49,3.49,0,0,1,2.07-.54,3.33,3.33,0,0,1,2.12.57,2.73,2.73,0,0,1,.95,1.58A9.56,9.56,0,0,1,25,12.45V13H23.8v-.54a7.83,7.83,0,0,0-.22-2.13,1.78,1.78,0,0,0-.69-1A2.25,2.25,0,0,0,21.67,9a2,2,0,0,0-1.39.43,2.44,2.44,0,0,0-.63,1.4,15.84,15.84,0,0,0-.17,2.58v3.53a8.49,8.49,0,0,0,.44,3.19,1.73,1.73,0,0,0,1.77,1,2.1,2.1,0,0,0,1.38-.4,2,2,0,0,0,.59-1.25,13,13,0,0,0,.14-2.18v-.52H25v.49a12.94,12.94,0,0,1-.21,2.45,3,3,0,0,1-.92,1.71A3.15,3.15,0,0,1,21.67,22.06Z"/><path class="b1210434-eecb-452b-a696-edcbfc61527a" d="M26.51,25.35v-1a3.6,3.6,0,0,0,.91-.09.68.68,0,0,0,.47-.45,3.47,3.47,0,0,0,.17-1.13c0-.51,0-1.22,0-2.11V17.38a7.67,7.67,0,0,1,.28-2.51,1.48,1.48,0,0,1,1-.94,1.58,1.58,0,0,1-1-1,7.65,7.65,0,0,1-.28-2.49V7.38c0-.9,0-1.6,0-2.11a3.5,3.5,0,0,0-.17-1.12.68.68,0,0,0-.47-.46,3.52,3.52,0,0,0-.91-.1V2.65a6.42,6.42,0,0,1,1.59.16,1.3,1.3,0,0,1,.84.63,3.45,3.45,0,0,1,.33,1.42c0,.63.05,1.47.05,2.52V10.1a14.4,14.4,0,0,0,.11,2,1.79,1.79,0,0,0,.4,1,1.18,1.18,0,0,0,.86.29v1.08a1.17,1.17,0,0,0-.86.28,1.69,1.69,0,0,0-.4,1,14.26,14.26,0,0,0-.11,2V20.6c0,1,0,1.89-.05,2.51a3.5,3.5,0,0,1-.33,1.43,1.34,1.34,0,0,1-.84.64A5.9,5.9,0,0,1,26.51,25.35Z"/></g></g></svg>