<?xml version="1.0" standalone="no"?>
<!DOCTYPE svg PUBLIC "-//W3C//DTD SVG 20010904//EN"
 "http://www.w3.org/TR/2001/REC-SVG-20010904/DTD/svg10.dtd">
<svg version="1.0" xmlns="http://www.w3.org/2000/svg"
 width="1088.000000pt" height="1088.000000pt" viewBox="0 0 1088.000000 1088.000000"
 preserveAspectRatio="xMidYMid meet">
<metadata>
Created by potrace 1.11, written by Peter Selinger 2001-2013
</metadata>
<g transform="translate(0.000000,1088.000000) scale(0.100000,-0.100000)"
fill="#000000" stroke="none">
<path d="M0 5440 l0 -4430 5440 0 5440 0 0 4430 0 4430 -5440 0 -5440 0 0
-4430z m2330 3445 l0 -205 -67 0 c-89 -1 -214 -24 -261 -48 -54 -27 -96 -89
-123 -178 l-23 -79 -6 -1065 c-5 -748 -10 -1085 -18 -1133 -32 -184 -82 -367
-126 -462 -53 -114 -157 -215 -265 -256 -45 -17 -45 -18 -21 -27 118 -46 234
-141 280 -231 43 -86 97 -303 119 -481 7 -54 11 -452 11 -1106 0 -1092 1
-1116 50 -1247 42 -112 113 -146 348 -163 l92 -7 0 -76 c0 -42 3 -134 7 -205
l6 -129 -164 6 c-189 8 -405 37 -497 68 -137 46 -244 146 -301 284 -89 213
-92 262 -101 1465 -7 1012 -12 1159 -45 1323 -39 193 -150 301 -322 315 l-63
5 0 202 0 202 61 7 c149 15 255 105 309 261 46 131 51 257 60 1285 10 1195 19
1325 105 1531 60 142 153 232 289 279 101 34 358 66 564 69 l102 1 0 -205z
m6655 180 c223 -29 306 -60 407 -153 47 -44 70 -76 99 -137 99 -211 108 -330
119 -1630 9 -1024 14 -1121 58 -1247 52 -148 155 -232 301 -246 l66 -7 3 -207
2 -208 -43 0 c-55 0 -140 -25 -195 -56 -48 -28 -102 -103 -133 -185 -46 -121
-51 -218 -59 -1299 -9 -1284 -17 -1382 -120 -1596 -74 -154 -213 -249 -407
-280 -54 -8 -196 -18 -316 -21 l-217 -6 2 209 3 209 65 2 c105 4 221 23 260
43 55 28 99 79 116 135 43 146 44 167 44 1241 0 1132 0 1133 64 1388 40 157
70 217 144 292 53 53 175 124 213 124 36 0 19 16 -48 45 -48 21 -86 48 -134
95 -104 102 -140 190 -206 510 -14 64 -17 234 -22 1175 l-7 1100 -22 80 c-13
44 -34 97 -47 117 -48 72 -150 110 -337 124 l-88 7 0 205 0 205 158 -6 c86 -4
211 -13 277 -22z m-4642 -1718 c161 -49 284 -125 405 -248 49 -49 75 -88 114
-168 105 -218 174 -484 186 -715 4 -72 6 -825 4 -1674 l-2 -1542 -223 2 -222
3 -7 72 c-4 40 -19 133 -32 208 -14 75 -28 166 -32 203 -9 103 -12 104 -53 16
-111 -235 -290 -412 -505 -498 -194 -78 -477 -74 -667 8 -274 119 -465 362
-529 674 -48 238 -10 601 86 811 37 83 128 212 202 289 118 121 328 276 529
391 97 55 703 353 836 412 l78 34 -4 340 c-8 553 -46 745 -175 885 -88 98
-197 140 -357 140 -273 -1 -458 -116 -545 -342 -47 -122 -60 -207 -60 -398 0
-93 -3 -171 -7 -173 -5 -2 -120 1 -258 7 l-250 11 1 150 c1 271 75 515 228
749 112 172 340 309 616 371 49 11 124 14 310 11 233 -2 249 -4 333 -29z
m2837 17 c247 -43 442 -143 563 -291 114 -140 167 -276 212 -543 33 -197 45
-342 45 -552 l0 -178 -250 0 -250 0 1 228 c0 240 -8 341 -43 507 -24 120 -40
163 -85 232 -97 148 -246 209 -488 200 -144 -5 -206 -21 -303 -80 -97 -58
-190 -208 -218 -352 -43 -222 -47 -305 -54 -1285 -3 -520 -3 -992 2 -1050 17
-223 91 -532 149 -621 46 -72 121 -136 207 -177 77 -37 77 -37 229 -40 120 -3
164 0 209 13 89 26 152 62 209 119 139 139 173 290 184 811 l6 320 254 3 254
2 -6 -272 c-9 -419 -60 -736 -150 -913 -132 -263 -360 -425 -675 -480 -114
-20 -430 -20 -545 0 -207 36 -422 147 -535 277 -167 190 -233 361 -286 738
-42 291 -46 406 -46 1199 0 903 10 1045 95 1431 39 176 95 304 183 421 132
173 333 287 594 334 108 19 422 19 538 -1z"/>
<path d="M4365 5193 c-752 -404 -940 -567 -1026 -889 -30 -110 -38 -389 -15
-486 17 -73 66 -179 114 -244 86 -117 284 -184 459 -154 175 29 401 194 530
385 80 119 73 48 73 790 0 366 -3 665 -7 664 -5 -1 -62 -30 -128 -66z"/>
</g>
</svg>
