<svg xmlns="http://www.w3.org/2000/svg" viewBox="0 0 721.31 107.55"><title>LA SORTIDA 3</title><style>* {fill:#bbbbbbff;} </style><g id="a0d4c10b-e3ce-4f38-8430-406e533aecc3" data-name="Capa 2"><g id="a62a6b8c-13e7-4195-a772-ecd8c8c7d98c" data-name="Capa 1"><path d="M27.37,56H2.27a2.33,2.33,0,0,1-1.73-.55A2.35,2.35,0,0,1,0,53.7v-32a3.16,3.16,0,0,1,.17-1.09,2,2,0,0,1,.52-.74l6.36-5.37a2,2,0,0,1,.67-.32,2.94,2.94,0,0,1,.91-.13h7.65a2.31,2.31,0,0,1,1.72.55,2.35,2.35,0,0,1,.54,1.72V36.44l.1-.1L25,31a1.85,1.85,0,0,1,.66-.32,3.34,3.34,0,0,1,.91-.12h7.16A1.95,1.95,0,0,1,36,32.79V48.32a2.94,2.94,0,0,1-.17,1.09,1.85,1.85,0,0,1-.52.74L28.9,55.47a1.72,1.72,0,0,1-.61.35A2.73,2.73,0,0,1,27.37,56Zm6.37-5.87a1.52,1.52,0,0,0,1.77-1.78V32.79A1.52,1.52,0,0,0,33.74,31H26.58a1.52,1.52,0,0,0-1.77,1.78v8H18.05V16.36A1.85,1.85,0,0,0,17.63,15a1.85,1.85,0,0,0-1.35-.42H8.63A1.88,1.88,0,0,0,7.27,15a1.9,1.9,0,0,0-.41,1.35v32a1.91,1.91,0,0,0,.41,1.36,1.88,1.88,0,0,0,1.36.42ZM12.23,45.66V19h.5V45.17H29.89V35.45h.49V45.66Z"/><path d="M49.52,55.47a1.69,1.69,0,0,1-.62.35A2.67,2.67,0,0,1,48,56H40.74a2,2,0,0,1-2.27-2.27v-13a15.22,15.22,0,0,1,.47-3.48,36,36,0,0,1,1.5-4.61l4.24-11.15a3.36,3.36,0,0,1,.37-.76,4.61,4.61,0,0,1,.47-.57l0-.05,6.32-5.28a2.47,2.47,0,0,1,.93-.51,3.9,3.9,0,0,1,1.24-.18H67.32a3.32,3.32,0,0,1,1.85.47A2.73,2.73,0,0,1,70.23,16l4.29,11.19A37.34,37.34,0,0,1,76,31.82a15.22,15.22,0,0,1,.47,3.48v13a2.93,2.93,0,0,1-.18,1.09,1.82,1.82,0,0,1-.51.74l-6.42,5.32a1.63,1.63,0,0,1-.61.35,2.71,2.71,0,0,1-.91.15H60.42a2.57,2.57,0,0,1-1.83-.57A2.28,2.28,0,0,1,58,53.7V47.29H56.62v1a3.16,3.16,0,0,1-.17,1.09,2,2,0,0,1-.52.74Zm6.61-7.15v-6.9h8.73v6.9a1.71,1.71,0,0,0,.47,1.36,2.11,2.11,0,0,0,1.45.42h7.45A1.52,1.52,0,0,0,76,48.32v-13a14.6,14.6,0,0,0-.46-3.4,38.81,38.81,0,0,0-1.46-4.49l-4.29-11.2A2.34,2.34,0,0,0,68.88,15a2.86,2.86,0,0,0-1.56-.39H54.06a3,3,0,0,0-1.61.39,2.34,2.34,0,0,0-.91,1.23l-4.29,11.2a38.81,38.81,0,0,0-1.46,4.49,14.6,14.6,0,0,0-.46,3.4v13a1.86,1.86,0,0,0,.42,1.36,1.83,1.83,0,0,0,1.35.42h7.25a1.52,1.52,0,0,0,1.78-1.78Zm14.15-2.66V37.18H51.05v8.48h-.5V35.15a13.39,13.39,0,0,1,.23-2.54,14,14,0,0,1,.61-2.24l3.16-8.09A10.26,10.26,0,0,1,55.78,20,2.76,2.76,0,0,1,58.15,19H63a2.64,2.64,0,0,1,2.3.93,12.34,12.34,0,0,1,1.25,2.37l3.41,8a14,14,0,0,1,.61,2.24,13.39,13.39,0,0,1,.23,2.54V45.66ZM51.05,35.15v1.53H70.28V35.15a12.65,12.65,0,0,0-.22-2.46,15.19,15.19,0,0,0-.57-2.12l-3.4-8A12.5,12.5,0,0,0,65,20.38a2.25,2.25,0,0,0-2-.86H58.15a2.33,2.33,0,0,0-2.07.86A10.8,10.8,0,0,0,55,22.48l-3.15,8.09a15.19,15.19,0,0,0-.57,2.12A12.65,12.65,0,0,0,51.05,35.15Zm7.89-10.21a1.86,1.86,0,0,1,.42-.64.76.76,0,0,1,.52-.19h1.23a.76.76,0,0,1,.52.19,2.2,2.2,0,0,1,.42.64l2.31,7.5H56.62Z"/><path d="M94,102.73a3.39,3.39,0,0,1-3.93-3.92v-10a5.18,5.18,0,0,1,.3-1.88,3.17,3.17,0,0,1,.9-1.28l8.53-7.16a14,14,0,0,1-7.13-4.65q-2.59-3.28-2.6-9.42v-9a17.21,17.21,0,0,1,1.28-6.82,13.63,13.63,0,0,1,3.67-5l11.09-9.3a16.91,16.91,0,0,1,5.71-2.94,26,26,0,0,1,7.76-1.07h23.88a4.12,4.12,0,0,1,3,.94,4.12,4.12,0,0,1,.94,3V44.39a5.18,5.18,0,0,1-.3,1.88,3.17,3.17,0,0,1-.9,1.28L138.54,54a17.19,17.19,0,0,1,8.65,4.47q3.28,3.28,3.29,10.2v8.95a17.17,17.17,0,0,1-1.28,6.82,13.22,13.22,0,0,1-3.75,5l-11,9.21a17.25,17.25,0,0,1-5.8,3,25.67,25.67,0,0,1-7.67,1.06Zm38-10.15q8.19,0,12.92-3.88t4.73-11.13V68.62q0-7.17-3.66-10.24a18.83,18.83,0,0,0-9.64-3.92l-12.71-1.71a2.22,2.22,0,0,1-1.7-.85,3,3,0,0,1-.6-1.88,2.78,2.78,0,0,1,.6-1.83,2.07,2.07,0,0,1,1.7-.73h19.87a3.24,3.24,0,0,0,2.35-.72,3.22,3.22,0,0,0,.72-2.35V34.25a3.24,3.24,0,0,0-.72-2.35,3.24,3.24,0,0,0-2.35-.72H119.6q-8.26,0-13,3.88T102,46.19v9q0,7.17,3.62,10.24a18.67,18.67,0,0,0,9.6,3.92L128,71.09a2.24,2.24,0,0,1,1.66.77,3.33,3.33,0,0,1,.56,2.13,2.8,2.8,0,0,1-.56,1.75,2,2,0,0,1-1.66.72H105a3.26,3.26,0,0,0-2.35.73,3.21,3.21,0,0,0-.72,2.34v10A2.62,2.62,0,0,0,105,92.58Zm6.91-53.73v.85H119.94a8.1,8.1,0,0,0-5.71,2,6.41,6.41,0,0,0-2.13,4.94v7c0,2,.4,3.38,1.19,4.17a5.73,5.73,0,0,0,3.16,1.54l18,3.67a7.94,7.94,0,0,1,4.23,2.21c1.1,1.14,1.66,3.19,1.66,6.15v4.94a8.16,8.16,0,0,1-2.56,6.19,9.63,9.63,0,0,1-6.91,2.43H109.62v-.86h21.24a8.84,8.84,0,0,0,6.27-2.17,7.29,7.29,0,0,0,2.35-5.59V71.35c0-2.68-.47-4.51-1.41-5.51a7.15,7.15,0,0,0-3.8-2l-18-3.67a7,7,0,0,1-3.63-1.75c-.94-.88-1.4-2.48-1.4-4.81v-7A7.21,7.21,0,0,1,113.63,41a9,9,0,0,1,6.31-2.18Z"/><path d="M214.47,99.53a24,24,0,0,1-9.59,4.54A63.94,63.94,0,0,1,189,105.69a51.22,51.22,0,0,1-15.7-2,24.74,24.74,0,0,1-9.59-5.33A17.67,17.67,0,0,1,159,90.72a30.11,30.11,0,0,1-1.32-8.9V51.41A26.6,26.6,0,0,1,158.91,43a14.23,14.23,0,0,1,4.6-6.6l12.71-10.56a23.91,23.91,0,0,1,9.54-4.55,63.83,63.83,0,0,1,15.89-1.61,65.15,65.15,0,0,1,15.7,1.56,25.16,25.16,0,0,1,9.59,4.35,14.18,14.18,0,0,1,4.74,6.65A26.9,26.9,0,0,1,233,40.74V74.1a26,26,0,0,1-1.27,8.31,14.2,14.2,0,0,1-4.6,6.55ZM232,74.1V40.74a24,24,0,0,0-1.32-8.16A13.91,13.91,0,0,0,226,26.27a24.69,24.69,0,0,0-9.29-4.11,63.82,63.82,0,0,0-15-1.47,64.42,64.42,0,0,0-15.06,1.47,24.66,24.66,0,0,0-9.34,4.11,13.91,13.91,0,0,0-4.69,6.31,24,24,0,0,0-1.32,8.16V74.1a23.92,23.92,0,0,0,1.32,8.16,13.58,13.58,0,0,0,4.69,6.26,25.14,25.14,0,0,0,9.34,4.06,64.42,64.42,0,0,0,15.06,1.47,63.82,63.82,0,0,0,15-1.47A25.16,25.16,0,0,0,226,88.52a13.58,13.58,0,0,0,4.69-6.26A23.92,23.92,0,0,0,232,74.1Zm-10.66-2.25a12,12,0,0,1-4.2,9.53q-4.22,3.68-15.65,3.67t-15.55-3.67a12.17,12.17,0,0,1-4.11-9.53V43a12.17,12.17,0,0,1,4.11-9.53q4.11-3.67,15.55-3.67t15.65,3.67a12,12,0,0,1,4.2,9.53Zm-38.53,0a11.12,11.12,0,0,0,3.91,8.85q3.92,3.38,14.77,3.37t14.86-3.37a11,11,0,0,0,4-8.85V43a11,11,0,0,0-4-8.85q-4-3.37-14.86-3.37t-14.77,3.37A11.12,11.12,0,0,0,182.78,43Zm10.66-1.27V44.27a4.15,4.15,0,0,1,1.46-3.18q1.47-1.32,6.75-1.32t6.75,1.32a4.13,4.13,0,0,1,1.47,3.18V70.58a4.22,4.22,0,0,1-1.47,3.27q-1.47,1.32-6.75,1.32t-6.75-1.32A4.24,4.24,0,0,1,193.44,70.58Zm1,0a3.6,3.6,0,0,0,.39,1.71,3,3,0,0,0,1.46,1.22V54.93a3.64,3.64,0,0,0-.39-1.72,2.58,2.58,0,0,0-1.46-1.12Z"/><path d="M283,92.69,268.5,104.77a3.85,3.85,0,0,1-1.4.78,6.24,6.24,0,0,1-2.07.33H247.82a4.43,4.43,0,0,1-5.14-5.14V28.31a6.61,6.61,0,0,1,.39-2.46,4.18,4.18,0,0,1,1.17-1.68L258.66,12a4.43,4.43,0,0,1,1.51-.73,7.51,7.51,0,0,1,2.07-.28h37.22q13.31,0,18.22,5.54t4.92,14.25v5.14a23.24,23.24,0,0,1-1,7.21,10.69,10.69,0,0,1-3.24,5h-.11a15.2,15.2,0,0,1,8.44,5.82,18.07,18.07,0,0,1,3.18,11v23.7a6.82,6.82,0,0,1-.39,2.46,4.08,4.08,0,0,1-1.17,1.67l-14.53,12.08a3.85,3.85,0,0,1-1.4.78,6.24,6.24,0,0,1-2.07.33H293a4.43,4.43,0,0,1-5.15-5.14V83.64a4.72,4.72,0,0,0-.67-2.74,2.81,2.81,0,0,0-2.46-1h-.11v8.61A6.82,6.82,0,0,1,284.2,91,4.08,4.08,0,0,1,283,92.69Zm-3.58-.11a3.46,3.46,0,0,0,4-4V66.65h15.64a4,4,0,0,1,3.3,1.17,5.78,5.78,0,0,1,.95,3.64v17.1a3.45,3.45,0,0,0,4,4h17.32a3.45,3.45,0,0,0,4-4V64.86q0-7-3.75-11.29a14.74,14.74,0,0,0-9.78-4.92,8.66,8.66,0,0,0,4.86-4.75,20.44,20.44,0,0,0,1.4-8V30.77q0-8.28-4.75-13.47t-17.27-5.2H262.24a4.25,4.25,0,0,0-3.08,1,4.25,4.25,0,0,0-1,3.08V88.56a3.45,3.45,0,0,0,4,4ZM271.4,82.52h-1.11V22.16h25.48q6.48,0,9.61,3.63a13.46,13.46,0,0,1,3.13,9.11v7.72a22.51,22.51,0,0,1-1.34,8.44,7.84,7.84,0,0,1-5.36,4.52H303q6.81,0,10.17,3.08t3.35,8.88v15h-1.12v-15q0-5.48-3-8.21T303,56.59H271.4Zm24.37-59.24H271.4v32.3h24.37q6.93,0,9.28-3.35c1.56-2.24,2.35-5.4,2.35-9.5V34.9a12.23,12.23,0,0,0-2.85-8.38Q301.7,23.28,295.77,23.28Zm-12.29,8.94h8.38c1.94,0,3.24.5,3.91,1.51a6.64,6.64,0,0,1,1,3.75v3.8a6.61,6.61,0,0,1-1,3.74c-.67,1-2,1.51-3.91,1.51h-8.38Z"/><path d="M378.08,107.55H357.71a5,5,0,0,1-5.79-5.79V41.28H334.7a6,6,0,0,1-4.41-1.39,6,6,0,0,1-1.38-4.4V20.27a7.72,7.72,0,0,1,.44-2.76,4.63,4.63,0,0,1,1.32-1.89l16.22-13.7a4.9,4.9,0,0,1,1.7-.82,8.2,8.2,0,0,1,2.33-.32h66.39a6.06,6.06,0,0,1,4.41,1.39,6,6,0,0,1,1.38,4.4V21.78a7.74,7.74,0,0,1-.44,2.77,4.82,4.82,0,0,1-1.32,1.89L405,40a4.3,4.3,0,0,1-1.57.88,7,7,0,0,1-2.33.38h-1V88.05a7.7,7.7,0,0,1-.44,2.77,4.75,4.75,0,0,1-1.32,1.89L382,106.29a4.3,4.3,0,0,1-1.57.88A7,7,0,0,1,378.08,107.55Zm16.22-15a3.88,3.88,0,0,0,4.53-4.53V26.31h18.48a4.7,4.7,0,0,0,3.46-1.07,4.75,4.75,0,0,0,1.07-3.46V6.57a4.76,4.76,0,0,0-1.07-3.46A4.75,4.75,0,0,0,417.31,2H350.92a4.75,4.75,0,0,0-3.46,1.07,4.76,4.76,0,0,0-1.07,3.46V21.78a4.75,4.75,0,0,0,1.07,3.46,4.7,4.7,0,0,0,3.46,1.07H369.4V88.05a3.88,3.88,0,0,0,4.53,4.53ZM383.49,81.26V14.62H357.71V13.36h52.81v1.26H384.74V81.26Z"/><path d="M481.87,105.88H434.25a4.43,4.43,0,0,1-5.14-5.14V87.44A6.82,6.82,0,0,1,429.5,85a4.18,4.18,0,0,1,1.17-1.68L444.2,71.9V47h-9.95a5.33,5.33,0,0,1-3.91-1.23,5.37,5.37,0,0,1-1.23-3.92V28.31a6.82,6.82,0,0,1,.39-2.46,4.18,4.18,0,0,1,1.17-1.68L445.09,12a4.43,4.43,0,0,1,1.51-.73,7.51,7.51,0,0,1,2.07-.28h47.62a5.36,5.36,0,0,1,3.91,1.23,5.37,5.37,0,0,1,1.23,3.92V29.65a6.82,6.82,0,0,1-.39,2.46,4.31,4.31,0,0,1-1.18,1.68L486.56,45V70.11h9.73a4.43,4.43,0,0,1,5.14,5.15v13.3A6.82,6.82,0,0,1,501,91a4.2,4.2,0,0,1-1.18,1.67l-14.53,12.08a3.76,3.76,0,0,1-1.4.78A6.22,6.22,0,0,1,481.87,105.88Zm-33.2-13.3h47.62a4.18,4.18,0,0,0,3.07-1,4.23,4.23,0,0,0,.95-3.07V75.26a3.45,3.45,0,0,0-4-4H485.44V33.67h10.85a4.18,4.18,0,0,0,3.07-1,4.21,4.21,0,0,0,.95-3.07V16.13a4.25,4.25,0,0,0-.95-3.08,4.23,4.23,0,0,0-3.07-1H448.67a4.25,4.25,0,0,0-3.08,1,4.25,4.25,0,0,0-.95,3.08V29.65a4.21,4.21,0,0,0,.95,3.07,4.21,4.21,0,0,0,3.08,1h11.06V71.23H448.67a3.45,3.45,0,0,0-4,4v13.3a3.45,3.45,0,0,0,4,4Zm41.58-10.06H454.7V81.4H472V23.28H454.7V22.16h35.55v1.12h-17.1V81.4h17.1Z"/><path d="M565.31,99a20.56,20.56,0,0,1-7.73,3.86,41.06,41.06,0,0,1-11.05,1.32h-33a3.88,3.88,0,0,1-4.5-4.5V36.34a6,6,0,0,1,.34-2.15,3.67,3.67,0,0,1,1-1.47l12.62-10.66a3.69,3.69,0,0,1,1.32-.63,6.44,6.44,0,0,1,1.81-.25h33q12.81,0,18.92,5.19t6.11,15.74V72.63a25.12,25.12,0,0,1-1.56,9.24,16.75,16.75,0,0,1-4.6,6.6Zm-6.16-6.46q12.23,0,18.14-4.89t5.92-15.06V42.11q0-10.17-5.92-15.06t-18.14-4.89h-33a3.7,3.7,0,0,0-2.69.83,3.67,3.67,0,0,0-.84,2.69V89.06a3,3,0,0,0,3.53,3.52Zm-25.83-8.8V31H557A24.89,24.89,0,0,1,565.06,32a11.4,11.4,0,0,1,4.75,2.89,9.57,9.57,0,0,1,2.25,4.3,23.28,23.28,0,0,1,.58,5.33V70.48a24.46,24.46,0,0,1-.54,5.28,8.62,8.62,0,0,1-2.2,4.2,11.11,11.11,0,0,1-4.79,2.79,26.44,26.44,0,0,1-8.12,1ZM557,31.94H534.3V82.8H557a25.32,25.32,0,0,0,7.58-.93A10.5,10.5,0,0,0,569,79.33a8.17,8.17,0,0,0,2.11-3.91,22.14,22.14,0,0,0,.53-4.94V44.56a20.62,20.62,0,0,0-.58-5,8.93,8.93,0,0,0-2.15-4,10.73,10.73,0,0,0-4.45-2.64A23.9,23.9,0,0,0,557,31.94Zm-12.12,8.9h11.64A4.73,4.73,0,0,1,560,42a4.88,4.88,0,0,1,1.12,3.57V69.3A5.06,5.06,0,0,1,560,72.92a4.58,4.58,0,0,1-3.47,1.18H544.87Zm2.64,15.36a5.26,5.26,0,0,0-.39-2.15,2.5,2.5,0,0,0-1.28-1.28V73.12h1.67Z"/><path d="M609.07,101.88a3,3,0,0,1-1.06.6,4.76,4.76,0,0,1-1.58.25H593.89A3.38,3.38,0,0,1,590,98.81V76.29a26.06,26.06,0,0,1,.81-6,64,64,0,0,1,2.6-8L600.72,43a5.07,5.07,0,0,1,.64-1.32,6.12,6.12,0,0,1,.81-1l.08-.09,10.92-9.12a4.41,4.41,0,0,1,1.62-.9,6.93,6.93,0,0,1,2.13-.3h22.94a5.73,5.73,0,0,1,3.2.81,4.75,4.75,0,0,1,1.84,2.52L652.31,53a63.12,63.12,0,0,1,2.61,8,26.07,26.07,0,0,1,.81,6V89.51a5.18,5.18,0,0,1-.3,1.88,3.17,3.17,0,0,1-.9,1.28l-11.08,9.21a3.18,3.18,0,0,1-1.07.6,4.72,4.72,0,0,1-1.58.25H627.92a4.42,4.42,0,0,1-3.15-1,3.89,3.89,0,0,1-1-2.94V87.72h-2.38v1.79a5.18,5.18,0,0,1-.3,1.88,3.17,3.17,0,0,1-.9,1.28ZM620.5,89.51V77.57h15.1V89.51a3,3,0,0,0,.81,2.35,3.72,3.72,0,0,0,2.52.72H651.8a2.62,2.62,0,0,0,3.07-3.07V67a25.27,25.27,0,0,0-.81-5.89,66.08,66.08,0,0,0-2.51-7.76L644.13,34a4,4,0,0,0-1.58-2.13,4.86,4.86,0,0,0-2.69-.68H616.92a5,5,0,0,0-2.77.68A4,4,0,0,0,612.57,34l-7.42,19.36a64.25,64.25,0,0,0-2.51,7.76,24.74,24.74,0,0,0-.81,5.89V89.51a2.62,2.62,0,0,0,3.07,3.07h12.53a2.62,2.62,0,0,0,3.07-3.07ZM645,84.91V70.24H611.72V84.91h-.85V66.74a23,23,0,0,1,.38-4.39,25,25,0,0,1,1.07-3.88l5.45-14a17.66,17.66,0,0,1,2.14-4c.79-1.08,2.16-1.62,4.09-1.62h8.36c1.87,0,3.2.54,4,1.62a20.66,20.66,0,0,1,2.18,4.1l5.88,13.9a25,25,0,0,1,1.07,3.88,23,23,0,0,1,.38,4.39V84.91ZM611.72,66.74v2.64H645V66.74a22.57,22.57,0,0,0-.38-4.26,28.4,28.4,0,0,0-1-3.67l-5.89-13.9a21.43,21.43,0,0,0-2-3.71,3.83,3.83,0,0,0-3.41-1.5H624a4,4,0,0,0-3.58,1.5,18.74,18.74,0,0,0-1.88,3.62l-5.46,14a28.4,28.4,0,0,0-1,3.67A22.57,22.57,0,0,0,611.72,66.74Zm13.64-17.65a3.08,3.08,0,0,1,.73-1.11,1.29,1.29,0,0,1,.89-.34h2.14A1.27,1.27,0,0,1,630,48a3.08,3.08,0,0,1,.73,1.11l4,13H621.36Z"/><path d="M682.16,61c-.16.18-.32.35-.5.53a1.59,1.59,0,0,1-.56.38l-6.9,2.65a2.16,2.16,0,0,1-1.69,0,2.28,2.28,0,0,1-1.15-1.35L658.22,29a3,3,0,0,1-.21-1,3,3,0,0,1,.1-.83l0-.1,6.47-11.56,0,.1a1.54,1.54,0,0,1,.47-.63,2.57,2.57,0,0,1,.72-.41L672.66,12a2,2,0,0,1,2.84,1.32l1.36,3.56L690,8.63c.47-.23,1.08-.51,1.85-.83s1.52-.6,2.26-.83L716.56.11a3.4,3.4,0,0,1,1.79,0,2.1,2.1,0,0,1,1.42,1.41l1.39,3.63a2,2,0,0,1,.13,1,3.15,3.15,0,0,1-.24.89l-6.33,11.5a2,2,0,0,1-.63.74,4.06,4.06,0,0,1-1,.56l-3.48,1.34L711,24.82a1.91,1.91,0,0,1,.13,1,3.09,3.09,0,0,1-.24.88l-.8,1.39a1.93,1.93,0,0,1,.68.9l1.39,3.63a1.68,1.68,0,0,1,.08.85,3.46,3.46,0,0,1-.25.88l0,.1-6.35,11.43a3.61,3.61,0,0,1-.62.78,2.4,2.4,0,0,1-.73.49l-17.13,7.41-.78.25a5.15,5.15,0,0,1-.73.16Zm5.76-13.19L674.77,13.57a1.41,1.41,0,0,0-.77-.91,1.44,1.44,0,0,0-1.06,0L666,15.34a1.44,1.44,0,0,0-.81.69,1.42,1.42,0,0,0,0,1.19l13.14,34.25a1.48,1.48,0,0,0,.76.87,1.35,1.35,0,0,0,1.08,0l6.89-2.64a1.35,1.35,0,0,0,.8-.73A1.48,1.48,0,0,0,687.92,47.82Zm22.35-12.91a2,2,0,0,0,.92-.85,1.32,1.32,0,0,0,.22-1.17L710,29.26a1.47,1.47,0,0,0-.67-.78,1,1,0,0,0-1,0l-6.08,2.83-.3-.8L709,27.24a3.19,3.19,0,0,0,1.11-.88,1.24,1.24,0,0,0,.15-1.27L709,21.76a1.57,1.57,0,0,0-.83-1,1.19,1.19,0,0,0-1.1,0l-6.15,2.86L700.6,23l7.4-3.51a3,3,0,0,0,1.15-.9,1.23,1.23,0,0,0,.11-1.24L708,14.12a1.13,1.13,0,0,0-.7-.73,1.67,1.67,0,0,0-1.12.1l-6.82,2.62-.31-.8,20-7.69a2.5,2.5,0,0,0,1.2-.87,1.33,1.33,0,0,0,.13-1.3L719,1.82a1.36,1.36,0,0,0-1-.94,3,3,0,0,0-1.26,0L694.34,7.73a21.85,21.85,0,0,0-2.16.78c-.74.31-1.34.59-1.8.82l-13.17,8.22,9.53,24.81,3.07.4a5.7,5.7,0,0,0,1.5,0,7.12,7.12,0,0,0,1.82-.45Z"/></g></g></svg>
