<?xml version="1.0" encoding="UTF-8"?>
<svg viewBox="0 0 353.6125 353.675" xmlns="http://www.w3.org/2000/svg">
 <defs>
  <clipPath id="a">
   <path d="m0 1178.9v-1178.9h1178.7v1178.9"/>
  </clipPath>
 </defs>
 <g transform="matrix(1.25 0 0 -1.25 0 353.68)">
  <g transform="scale(.24)">
   <g clip-path="url(#a)">
    <path d="m19.555 627.44 531.7 531.72c20.922 20.9 55.043 20.9 75.973 0l531.71-531.72c20.94-20.922 20.94-55.019 0-75.949l-531.71-531.74c-20.93-20.918-55.051-20.918-75.973 0l-531.7 531.74c-20.652 20.652-20.652 55.297 0 75.949" fill="#f03d76" fill-rule="evenodd"/>
    <path d="m19.555 627.44 531.7 531.72c20.922 20.9 55.043 20.9 75.973 0l531.71-531.72c20.94-20.922 20.94-55.019 0-75.949l-531.71-531.74c-20.93-20.918-55.051-20.918-75.973 0l-531.7 531.74c-20.652 20.652-20.652 55.297 0 75.949" fill="none" stroke="#231f20" stroke-width="8.1303"/>
    <path d="m29.156 618.07 531.48 531.48c15.73 15.61 41.476 15.57 57.218 0l531.46-531.48c15.65-15.59 15.62-41.613 0-57.226l-531.46-531.46c-15.593-15.582-41.613-15.664-57.218 0l-531.48 531.46c-15.594 15.675-15.625 41.574 0 57.226" fill="#231f20" fill-rule="evenodd"/>
    <path d="m45.184 602.45 531.08 531.08c7.015 7.26 18.968 7.24 25.968 0l531.07-531.08c7.26-6.988 7.26-18.957 0-25.957l-531.07-531.05c-7-7.293-18.972-7.293-25.968 0l-531.08 531.05c-7.2383 7.008-7.2383 18.949 0 25.957" fill="#f14176" fill-rule="evenodd"/>
    <path d="m580.53 836.47c0 14.558-6.543 26.625-17.593 35.656 11.558 12.059 15.086 18.09 15.086 31.144 0 22.094-13.563 37.168-32.649 37.168h-45.226v-143.16h42.195c21.09 0 38.187 17.594 38.187 39.192zm-22.625 66.8c0-13.054-6.011-21.109-15.562-21.109h-21.594v38.184h21.594c11.062 0 15.562-5.028 15.562-17.075zm2.524-65.308c0-12.543-7.531-20.578-19.09-20.578h-20.59v44.703h20.59c10.555 0 19.09-10.563 19.09-24.125zm116.57-40.684v20.106h-52.246v47.203h29.633v19.598h-29.633v36.16h46.715v20.093h-67.324v-143.16h72.855" fill="#231f20" fill-rule="evenodd"/>
    <path d="m277.95 671.04c0 24.113-15.078 40.172-37.699 40.172h-42.684v-143.14h20.61v62.781h22.074c24.137 0 37.699 14.067 37.699 40.184zm-20.105 0c0-13.062-6.531-20.594-18.567-20.594h-21.101v40.688h21.101c11.051 0 18.567-8.047 18.567-20.094zm120.06-102.96-20.57 70.305c13.559 5.031 20.57 17.586 20.57 34.664 0 23.094-15.066 38.168-37.668 38.168h-42.695v-143.14h20.582v67.301h19.605l19.075-67.301h21.101zm-20.082 104.97c0-11.543-6.543-18.086-18.613-18.086h-21.086v36.176h21.086c11.062 0 18.613-7.043 18.613-18.09zm116.54-104.97v20.086h-52.246v47.215h29.629v19.582h-29.629v36.176h46.719v20.078h-67.309v-143.14h72.836zm104.5 102.96c0 24.113-15.078 40.172-37.675 40.172h-42.731v-143.14h20.625v62.781h22.106c24.113 0 37.675 14.067 37.675 40.184zm-20.125 0c0-13.062-6.5-20.594-18.554-20.594h-21.102v40.688h21.102c11.039 0 18.554-8.047 18.554-20.094zm120.07-102.96-35.656 143.14h-20.09l-35.668-143.14h20.613l9.539 39.184h30.613l10.09-39.184h20.559zm-35.656 59.278h-20.59l10.035 41.156 10.555-41.156zm135.66-59.278-20.633 70.305c13.562 5.031 20.633 17.586 20.633 34.664 0 23.094-15.11 38.168-37.688 38.168h-42.718v-143.14h20.613v67.301h19.597l19.086-67.301h21.11zm-20.125 104.97c0-11.543-6.508-18.086-18.559-18.086h-21.109v36.176h21.109c11.028 0 18.559-7.043 18.559-18.09zm116.56-104.97v20.086h-52.246v47.215h29.641v19.582h-29.641v36.176h46.715v20.078h-67.316v-143.14h72.847zm104.48 71.828c0 11.036-1.52 23.61-3.52 34.145-2.511 14.578-8.547 25.605-17.086 31.641-5.023 4.035-11.035 5.523-23.101 5.523h-36.649v-143.14h39.68c8.031 0 15.047 2.028 20.07 6.512 14.079 11.078 20.606 32.164 20.606 65.316zm-20.078-1.015c0-11.051-1.035-21.086-2.02-30.125-2.027-11.067-8.547-20.602-20.613-20.602h-17.086v102.97h17.086c9.062 0 15.098-4.52 18.586-14.567 2.531-6.039 4.047-21.609 4.047-37.679" fill="#231f20" fill-rule="evenodd"/>
    <path d="m349.87 462.92v19.086h-72.867v-19.086h26.148v-124.09h20.571v124.09h26.148zm100.96-52.242c0 21.593-2 35.156-8.043 49.215-7.031 17.57-17.078 24.621-33.668 24.621-16.566 0-26.613-7.051-34.148-24.114-6.035-13.55-8.047-28.129-8.047-49.722 0-22.117 2.012-35.688 8.047-49.727 7.027-17.086 17.062-24.707 34.148-24.707 16.07 0 26.637 7.621 33.668 24.707 6.043 13.57 8.043 27.61 8.043 49.727zm-19.602 0c0-16.594-0.996-25.121-4.515-36.653-3.531-12.097-9.063-17.593-17.594-17.593-9.058 0-14.543 5.496-18.07 17.593-3.016 11.532-4.539 20.571-4.539 36.133 0 16.078 1.015 25.641 4.539 36.692 3.527 12.035 9.012 17.574 18.07 17.574 8.531 0 14.063-5.539 17.594-18.106 3.012-10.519 4.515-19.574 4.515-35.64zm192.4-32.653c0 20.594-12.067 36.157-39.688 52.246-10.554 6.036-13.578 10.016-13.578 17.086 0 9.528 7.559 16.543 17.082 16.543 9.063 0 16.086-6.507 16.567-16.543h19.617c-0.508 21.594-16.078 37.157-36.184 37.157-20.59 0-36.656-16.598-36.656-37.157 0-12.597 6.012-23.652 17.57-31.671 29.133-19.567 21.114-14.04 24.094-17.067 8.566-6.543 11.559-12.578 11.559-20.594 0-11.527-9.016-21.593-20.071-21.593-14.066 0-20.09 12.566-20.09 24.589h-20.113c0-23.585 15.082-44.777 40.203-44.777 22.106 0 39.688 18.676 39.688 41.781zm85.879 84.895v19.086h-72.824v-19.086h26.128v-124.09h20.594v124.09h26.102zm100.99-52.242c0 21.593-2.02 35.156-8.031 49.215-7.051 17.57-17.09 24.621-33.688 24.621-16.535 0-26.613-7.051-34.133-24.114-6.031-13.55-8.043-28.129-8.043-49.722 0-22.117 2.012-35.688 8.043-49.727 7.012-17.086 17.09-24.707 34.133-24.707 16.11 0 26.637 7.621 33.688 24.707 6.011 13.57 8.031 27.61 8.031 49.727zm-19.594 0c0-16.594-1.015-25.121-4.539-36.653-3.504-12.097-9.019-17.593-17.586-17.593-9.019 0-14.555 5.496-18.082 17.593-3.015 11.532-4.488 20.571-4.488 36.133 0 16.078 0.996 25.641 4.488 36.692 3.527 12.035 9.063 17.574 18.082 17.574 8.567 0 14.082-5.539 17.586-18.106 3.016-10.519 4.539-19.574 4.539-35.64zm128.59 31.152c0 24.098-15.086 40.176-37.68 40.176h-42.683v-143.17h20.593v62.812h22.09c24.117 0 37.68 14.04 37.68 40.184zm-20.082 0c0-13.086-6.535-20.621-18.602-20.621h-21.086v40.672h21.086c11.063 0 18.602-8.012 18.602-20.051" fill="#231f20" fill-rule="evenodd"/>
   </g>
  </g>
 </g>
</svg>
